<svg xmlns="http://www.w3.org/2000/svg" viewBox="0 0 192 192" width="192" height="192">
  <rect width="192" height="192" rx="40" fill="#185FA5"/>
  <rect x="32" y="32" width="128" height="52" rx="10" fill="rgba(255,255,255,0.15)"/>
  <text x="148" y="72" font-family="monospace" font-size="32" fill="white" text-anchor="end">0</text>
  <rect x="32" y="96" width="56" height="20" rx="6" fill="rgba(255,255,255,0.2)"/>
  <rect x="96" y="96" width="24" height="20" rx="6" fill="rgba(255,255,255,0.2)"/>
  <rect x="128" y="96" width="32" height="20" rx="6" fill="#e94560"/>
  <rect x="32" y="124" width="24" height="20" rx="6" fill="rgba(255,255,255,0.2)"/>
  <rect x="64" y="124" width="24" height="20" rx="6" fill="rgba(255,255,255,0.2)"/>
  <rect x="96" y="124" width="24" height="20" rx="6" fill="rgba(255,255,255,0.2)"/>
  <rect x="128" y="124" width="32" height="20" rx="6" fill="#185FA5" stroke="rgba(255,255,255,0.4)" stroke-width="1"/>
  <rect x="32" y="152" width="56" height="20" rx="6" fill="rgba(255,255,255,0.2)"/>
  <rect x="96" y="152" width="24" height="20" rx="6" fill="rgba(255,255,255,0.2)"/>
  <rect x="128" y="152" width="32" height="20" rx="6" fill="rgba(255,255,255,0.2)"/>
</svg>
