<svg xmlns="http://www.w3.org/2000/svg" viewBox="0 0 512 512" width="512" height="512">
  <rect width="512" height="512" rx="100" fill="#185FA5"/>
  <rect x="80" y="80" width="352" height="140" rx="24" fill="rgba(255,255,255,0.15)"/>
  <text x="400" y="188" font-family="monospace" font-size="88" fill="white" text-anchor="end">0</text>
  <rect x="80" y="248" width="148" height="52" rx="16" fill="rgba(255,255,255,0.2)"/>
  <rect x="248" y="248" width="64" height="52" rx="16" fill="rgba(255,255,255,0.2)"/>
  <rect x="332" y="248" width="100" height="52" rx="16" fill="#e94560"/>
  <rect x="80" y="316" width="64" height="52" rx="16" fill="rgba(255,255,255,0.2)"/>
  <rect x="164" y="316" width="64" height="52" rx="16" fill="rgba(255,255,255,0.2)"/>
  <rect x="248" y="316" width="64" height="52" rx="16" fill="rgba(255,255,255,0.2)"/>
  <rect x="332" y="316" width="100" height="52" rx="16" fill="rgba(255,255,255,0.25)"/>
  <rect x="80" y="384" width="148" height="52" rx="16" fill="rgba(255,255,255,0.2)"/>
  <rect x="248" y="384" width="64" height="52" rx="16" fill="rgba(255,255,255,0.2)"/>
  <rect x="332" y="384" width="100" height="52" rx="16" fill="rgba(255,255,255,0.2)"/>
</svg>
